<svg width="335" height="63" viewBox="0 0 335 63" fill="none" xmlns="http://www.w3.org/2000/svg">
<path d="M0.0359186 14.1834L333.234 0.000308409L324.3 38.9806L7.98365 52.9282L0.0359186 14.1834Z" fill="#FF8383"/>
<path d="M33.3893 33.5688C33.4867 35.5263 31.8271 38.7978 29.6598 38.9056C28.7858 38.949 28.4909 37.2466 28.4666 36.7572C28.3884 35.1841 30.2299 31.3429 31.9777 31.256C32.9565 31.2073 33.3493 32.7647 33.3893 33.5688ZM36.9373 33.7428C36.7826 30.6316 34.5848 27.3067 31.3338 27.4683C27.5235 27.6578 24.6694 33.687 24.8328 36.9729C24.9667 39.6646 26.7276 42.6608 29.5242 42.5218C32.7752 42.3601 37.1842 38.7066 36.9373 33.7428ZM46.003 33.4321C46.0917 35.2149 44.2733 37.408 43.0531 38.2396C43.2443 35.742 43.4722 33.2776 43.805 30.8081C45.1629 31.3363 45.9683 32.733 46.003 33.4321ZM49.7643 33.6656C49.58 29.9602 45.6693 26.7204 42.1736 26.8943C40.7753 26.9638 38.8297 28.0067 38.9062 29.5448C38.9323 30.0692 39.238 30.5796 39.8182 30.9713C39.2869 37.2003 38.9132 42.3703 39.1843 47.8235C39.2799 49.7462 39.4576 51.91 39.693 53.8257C39.6021 54.1106 39.5495 54.4636 39.5652 54.7782C39.6295 56.0716 40.6272 57.1083 41.8857 57.0458C42.9693 56.9919 43.4433 55.9521 43.3946 54.9733C43.3772 54.6237 43.2882 54.2427 43.1345 53.9699C43.0978 53.9367 43.0124 52.9247 42.9272 51.2118C42.7569 47.7861 42.6999 45.2307 42.7845 42.7034C42.8911 42.7332 42.961 42.7297 43.0659 42.7245C43.2057 42.7175 43.3438 42.6756 43.4819 42.6337C44.2073 42.4224 49.9398 37.1963 49.7643 33.6656ZM68.1146 27.5317C68.0555 26.3432 67.2692 25.331 65.9758 25.3953C65.9059 25.3988 65.871 25.4005 65.7329 25.4424C65.4551 24.7904 64.7282 24.2659 63.5694 24.2184C63.0433 24.2095 62.5889 24.2321 62.1344 24.2547C61.1906 24.3016 60.2852 24.4167 59.2784 24.6069C59.3765 23.761 59.6602 21.7144 59.5664 19.8267C59.4708 17.9041 58.9644 16.1771 57.4612 16.2519C56.028 16.3232 55.8092 17.5605 55.8631 18.6442C55.8839 19.0637 55.9432 19.5513 55.9676 20.0407C56.0666 22.0333 55.6972 24.4696 55.5711 25.4571C54.2269 25.9094 51.3759 27.0675 50.437 27.9201C49.9003 28.4024 49.7167 28.9372 49.7427 29.4615C49.7931 30.4753 50.7857 31.4071 51.8344 31.355C52.149 31.3393 52.5283 31.2153 52.8325 30.99C53.9111 30.1303 54.1402 29.8035 55.2064 29.4001C54.8499 35.6205 54.8723 36.7758 54.9975 39.2927C55.0826 41.0056 56.3863 41.8519 57.4699 41.798C58.3439 41.7545 59.1201 41.1552 59.061 39.9667C59.0436 39.6171 58.7554 38.7554 58.6807 37.2522C58.5486 34.5955 58.763 30.4498 58.9034 28.3402C60.0797 28.0364 61.5323 27.6488 63.1053 27.5705C63.35 27.5584 63.8097 27.6407 64.1942 27.6215C64.0996 28.5374 64.1814 29.4795 64.1778 30.1104C64.1718 32.809 64.0733 35.0567 64.1498 36.5948C64.2541 38.6922 64.4511 40.5397 66.4786 40.4389C67.5622 40.385 68.3176 39.3662 68.2637 38.2826C68.2324 37.6534 67.7834 37.08 67.7434 36.2759C67.6495 34.3883 68.1685 28.6154 68.1146 27.5317ZM67.6578 16.9363C67.597 15.7128 66.7163 14.9156 65.8074 14.9608C65.1083 14.9956 64.4003 15.5564 64.0153 16.9773C63.6934 18.2548 63.153 19.3681 63.2121 20.5566C63.2782 21.8849 64.075 22.406 64.879 22.366C65.6481 22.3278 66.4592 21.7268 66.5836 20.7043C66.7028 19.577 66.792 19.2572 67.2992 18.1807C67.4898 17.7857 67.642 17.3226 67.6578 16.9363ZM92.3158 37.0516C92.288 36.4922 91.9175 36.0901 91.8932 35.6007C91.881 35.356 91.8656 34.3406 91.8013 33.0472C91.6813 30.6351 91.4743 27.1762 91.0674 26.04C90.7844 25.2831 89.4723 23.5611 88.074 23.6307C86.3262 23.7176 84.4148 27.5622 83.014 30.4003C82.7036 27.6824 82.3772 26.0516 81.9631 25.4764C81.5473 24.8663 80.5216 23.9712 79.5079 24.0216C78.6689 24.0633 77.389 25.809 76.5182 27.3241C76.0726 26.8206 75.3911 26.5041 74.7269 26.5371C73.4335 26.6014 72.8827 27.5049 72.9418 28.6934C72.9765 29.3926 73.111 29.9816 73.1405 30.5759C73.25 32.7782 72.9816 36.5411 73.0911 38.7434C73.1311 39.5474 73.2305 40.1382 73.4175 40.3742C73.7564 40.848 74.4328 41.0596 75.0969 41.0266C76.1107 40.9762 77.0984 40.4014 77.0445 39.3178C77.0254 38.9333 76.9048 38.6239 76.8892 38.3092C76.7554 35.6176 78.5691 31.2171 79.4401 29.0011C79.5357 30.9237 79.6037 31.5861 79.6367 32.2503L80.0477 37.6966C80.1661 39.3728 80.7652 40.8499 82.4081 40.7682C83.317 40.723 83.7962 39.788 83.9783 38.5174C84.318 36.1877 87.4595 27.4809 87.7391 27.467C88.0188 27.4531 88.1252 28.1837 88.1721 29.1276C88.2486 30.6657 88.1553 33.0182 88.2527 34.9758C88.3274 36.4789 88.4858 38.9591 90.3735 38.8653C91.3522 38.8166 92.3644 38.0303 92.3158 37.0516ZM100.094 25.9416C100.035 24.753 99.2484 23.7408 97.955 23.8051C95.8227 23.9112 96.1556 27.0835 96.157 28.5203C96.151 31.2189 96.0525 33.4665 96.129 35.0046C96.2333 37.1021 96.4303 38.9496 98.4578 38.8487C99.5414 38.7949 100.297 37.7761 100.243 36.6924C100.212 36.0632 99.7626 35.4898 99.7226 34.6858C99.6287 32.7981 100.148 27.0252 100.094 25.9416ZM99.637 15.3462C99.5762 14.1227 98.6955 13.3254 97.7866 13.3706C97.0875 13.4054 96.3795 13.9662 95.9945 15.3871C95.6726 16.6647 95.1322 17.7779 95.1913 18.9664C95.2574 20.2948 96.0542 20.8159 96.8582 20.7759C97.6273 20.7376 98.4384 20.1366 98.5628 19.1142C98.682 17.9869 98.7712 17.667 99.2784 16.5905C99.469 16.1956 99.6212 15.7324 99.637 15.3462ZM123.254 33.761C123.209 32.8521 122.143 31.8538 121.269 31.8973C120.046 31.9581 116.943 32.9885 116.008 33.2102C114.103 33.6553 112.196 34.0656 110.25 34.4076C111.687 33.0045 115.984 29.2164 115.852 26.5597C115.837 26.2451 115.723 26.0755 115.575 25.9077C115.094 25.4059 112.93 24.8827 110.344 25.0114C108.526 25.1018 104.334 26.0811 104.421 27.829C104.472 28.8427 105.478 29.3534 106.317 29.3116C107.995 29.2282 109.413 28.1414 111.021 28.0615C111.231 28.0511 111.372 28.0791 111.377 28.1839C111.379 28.2189 111.349 28.3255 111.25 28.4356C109.432 30.6286 106.954 32.9595 105.038 34.5967C103.862 35.6014 103.444 36.358 103.471 36.9174C103.525 38.001 105.201 38.5835 106.32 38.5279C110.095 38.3401 118.767 35.1405 120.62 35.0484L121.319 35.0136C122.123 34.9737 123.303 34.7398 123.254 33.761ZM137.804 30.199C137.756 29.2202 136.66 28.3285 135.716 28.3754C134.842 28.4189 134.394 29.2822 133.872 30.0441C133.447 30.661 129.726 34.0699 127.668 34.2424C126.093 34.2857 125.024 32.5166 124.956 31.1533L124.945 30.9435C127.635 30.7747 131.39 28.7658 133.396 26.1079C133.889 25.4526 133.997 24.8164 133.98 24.4668C133.921 23.2783 132.421 22.7221 130.464 22.8194C125.884 23.0471 120.867 26.4505 121.102 31.1697C121.267 34.4906 124.029 37.8926 127.315 37.7292C130.496 37.571 133.274 34.9448 135.369 33.3688C135.706 33.1068 136.411 32.476 136.715 32.2506C137.223 31.9099 137.846 31.0379 137.804 30.199ZM130.185 25.6718C129.512 26.2309 128.337 27.2705 125.871 27.7086C125.801 27.712 126.502 27.0114 127.802 26.386C128.899 25.8759 129.94 25.684 130.185 25.6718ZM166.692 13.2033C166.595 11.2458 164.361 10.726 162.823 10.8025C159.502 10.9677 156.32 13.9293 156.845 24.4863C156.864 24.8708 156.852 25.327 156.869 25.6766C155.39 26.2407 153.387 27.5318 153.467 29.1398C153.523 30.2584 154.375 31.1972 155.424 31.1451C156.018 31.1155 156.59 30.6315 157.087 30.0462C157.187 32.0737 157.196 33.6502 157.027 36.6022C156.73 41.2076 156.043 44.2906 156.043 44.2906C155.649 44.8358 155.501 45.3688 155.523 45.8233C155.586 47.0817 156.79 48.0381 157.838 47.986C158.433 47.9564 159.083 47.6437 159.365 46.9639C159.644 46.2491 159.639 45.4434 159.706 44.6691C160.027 41.9548 160.316 39.3122 160.53 36.5682C160.751 33.964 160.723 31.3021 160.588 28.5755C161.561 28.4219 162.439 28.4484 164.358 28.2829C165.962 28.133 166.616 27.1893 166.568 26.2106C166.521 25.2667 165.908 24.2109 164.964 24.2578C164.439 24.2839 163.856 24.5232 163.158 24.5929C162.216 24.6748 161.307 24.72 160.332 24.8386C160.149 21.1681 160.167 14.474 162.719 14.3471C163.663 14.3001 164.122 15.0833 165.241 15.0277C166.185 14.9807 166.734 14.0423 166.692 13.2033ZM175.373 26.5086C175.47 28.4662 173.81 31.7377 171.643 31.8454C170.769 31.8889 170.474 30.1864 170.45 29.6971C170.372 28.124 172.213 24.2828 173.961 24.1959C174.94 24.1472 175.333 25.7046 175.373 26.5086ZM178.921 26.6826C178.766 23.5715 176.568 20.2465 173.317 20.4082C169.507 20.5977 166.653 26.6268 166.816 29.9128C166.95 32.6045 168.711 35.6007 171.508 35.4616C174.759 35.3 179.168 31.6465 178.921 26.6826ZM195.668 21.1191C195.598 19.7208 194.125 18.9881 192.692 19.0593C191.888 19.0993 191.202 19.4137 190.522 19.833C188.956 20.7519 186.842 23.3451 185.489 25.0244C185.393 23.8026 185.385 22.927 185.284 22.3012C185.05 20.4205 183.895 19.742 182.846 19.7942C181.867 19.8429 180.956 20.554 181.003 21.4978C181.012 21.6726 181.056 21.8456 181.136 22.0519C181.692 23.3559 181.941 24.8504 182.019 26.4234C182.223 30.5134 181.64 31.4885 181.715 32.9917C181.8 34.7045 182.854 35.4581 183.868 35.4077C184.462 35.3782 185.009 35.1057 185.369 34.5971C186.06 33.6867 185.454 31.369 186.397 29.8853C188.539 26.4497 191.607 22.6176 192.796 22.5585C193.11 22.5428 193.402 22.7736 193.856 22.751C194.73 22.7076 195.711 21.993 195.668 21.1191ZM222.124 38.6218C222.362 43.4108 218.673 48.8508 215.072 49.0298C213.359 49.115 211.402 47.8106 211.315 46.0627C211.27 45.1539 211.704 44.0109 212.79 42.5902C215.618 38.8751 219.92 37.2946 221.822 36.7795C221.991 37.3668 222.093 37.9925 222.124 38.6218ZM219.015 26.1258C219.091 27.6639 216.14 28.932 214.485 29.4698C214.41 27.9667 216.868 25.2513 217.636 24.4772C218.387 24.7903 218.978 25.3917 219.015 26.1258ZM235.05 34.2995C234.93 31.8874 229.926 32.0311 228.388 32.1076C226.605 32.1963 224.901 32.4562 223.926 32.5748C223.169 31.456 222.039 30.566 220.606 29.9364C221.875 28.6818 222.718 27.3083 222.645 25.8401C222.605 25.0361 222.32 24.2443 221.684 23.4348C222.584 23.2149 223.485 22.9949 224.393 22.9497C224.813 22.9288 224.92 22.9586 224.989 22.9551C226.528 22.8786 227.223 22.0731 227.183 21.2691C227.123 20.0456 225.803 19.5855 224.824 19.6342C222.517 19.7489 216.793 20.9097 216.129 20.9427C216.129 20.9427 215.372 20.5248 214.778 20.5543C213.834 20.6012 213.028 21.3071 213.073 22.216C213.094 22.6355 213.291 23.0812 213.698 23.5166C212.28 25.3042 210.516 27.1791 210.635 29.5562C210.652 29.9057 210.741 30.2868 210.83 30.6678C210.185 31.0854 209.592 31.8508 209.63 32.6198C209.681 33.6336 210.694 34.284 211.813 34.2284C212.477 34.1954 213.091 33.8495 213.743 33.5718C214.669 33.1753 215.673 32.9151 216.616 32.8682C217.77 32.8108 218.868 33.0366 219.809 33.6556C215.807 34.9059 213.178 36.2982 209.703 40.4308C208.084 42.4037 207.414 44.4344 207.508 46.3221C207.715 50.482 211.624 52.9859 215.435 52.7965C221.692 52.4853 226.186 44.2019 225.88 38.0495C225.844 37.3154 225.737 36.5848 225.564 35.9276C227.024 35.6798 228.312 35.5106 229.78 35.4376C229.955 35.4289 230.165 35.4185 230.341 35.4447C230.827 36.0514 231.645 36.291 232.414 36.2528C233.777 36.185 235.102 35.3482 235.05 34.2995ZM243.69 18.7312C243.62 17.3329 242.147 16.6002 240.714 16.6714C239.91 16.7114 239.224 17.0258 238.544 17.4451C236.978 18.364 234.864 20.9572 233.511 22.6365C233.415 21.4148 233.407 20.5391 233.305 19.9133C233.072 18.0326 231.917 17.3542 230.868 17.4063C229.889 17.455 228.978 18.1661 229.025 19.1099C229.034 19.2847 229.078 19.4578 229.158 19.664C229.713 20.968 229.963 22.4625 230.041 24.0356C230.245 28.1255 229.662 29.1006 229.737 30.6038C229.822 32.3166 230.876 33.0702 231.89 33.0198C232.484 32.9903 233.031 32.7178 233.391 32.2093C234.082 31.2988 233.476 28.9811 234.419 27.4974C236.561 24.0618 239.629 20.2297 240.818 20.1706C241.132 20.1549 241.424 20.3857 241.878 20.3631C242.752 20.3197 243.733 19.6051 243.69 18.7312ZM250.721 22.7619C250.818 24.7195 249.159 27.991 246.991 28.0988C246.118 28.1422 245.823 26.4398 245.798 25.9504C245.72 24.3773 247.562 20.5361 249.309 20.4492C250.288 20.4005 250.681 21.9579 250.721 22.7619ZM254.269 22.936C254.114 19.8248 251.916 16.4998 248.665 16.6615C244.855 16.851 242.001 22.8802 242.164 26.1661C242.298 28.8578 244.059 31.854 246.856 31.715C250.107 31.5533 254.516 27.8998 254.269 22.936ZM281.292 16.5811C281.236 15.4625 279.941 14.7909 278.962 14.8396C277.774 14.8987 277.272 16.0801 276.976 17.1811C276.917 17.3944 272.696 22.7205 270.755 25.2701C269.934 23.5587 268.33 17.3658 267.749 16.9741C267.388 16.7468 266.821 16.6348 266.227 16.6643C265.493 16.7008 264.736 16.9838 264.416 17.5954C264.257 17.9187 263.792 18.4324 263.295 19.0178C262.236 20.262 261.131 21.2981 260.292 22.7416C260.203 20.9588 260.128 20.1565 260.018 19.356C259.858 18.2426 258.734 17.4925 257.72 17.5429C256.567 17.6003 256.019 18.5736 256.068 19.5524C256.129 20.7759 256.529 23.174 256.602 23.9413C256.776 26.0353 256.858 27.6782 257.018 28.7916C257.196 30.2546 257.809 31.3105 259.034 31.2846C261.511 31.0563 262.409 27.262 263.198 25.5057C263.734 24.3226 264.852 22.8302 265.708 21.7363C266.26 23.6713 267.738 28.7142 268.684 30.1389C269.062 30.6808 270.048 30.772 270.677 30.7407C270.887 30.7303 271.061 30.7216 271.164 30.6814C272.617 30.2938 278.074 20.9462 280.248 18.8407C280.783 18.3235 281.333 17.42 281.292 16.5811ZM297.945 14.4564C297.901 13.5825 297.157 12.7084 295.648 12.6782C295.122 12.6694 294.668 12.692 294.214 12.7146C293.27 12.7615 292.364 12.8766 291.357 13.0668C291.456 12.2209 291.739 10.1743 291.645 8.28663C291.55 6.364 291.043 4.63702 289.54 4.71177C288.107 4.78303 287.888 6.02043 287.942 7.10409C287.963 7.52357 288.022 8.01123 288.047 8.50062C288.146 10.4932 287.776 12.9295 287.65 13.917C286.306 14.3693 283.455 15.5273 282.516 16.38C281.979 16.8623 281.796 17.397 281.822 17.9214C281.872 18.9351 282.865 19.867 283.913 19.8149C284.228 19.7992 284.607 19.6752 284.912 19.4498C285.99 18.5902 286.219 18.2634 287.286 17.86C286.929 24.0804 286.951 25.2357 287.077 27.7526C287.162 29.4654 288.465 30.3117 289.549 30.2579C290.423 30.2144 291.199 29.6151 291.14 28.4266C291.123 28.077 290.835 27.2153 290.76 25.7121C290.628 23.0554 290.842 18.9096 290.982 16.8001C292.159 16.4963 293.611 16.1086 295.184 16.0304C295.464 16.0165 295.924 16.0988 296.343 16.0779C297.425 15.9891 297.983 15.2255 297.945 14.4564ZM313.011 26.8485C312.993 26.4989 312.903 26.0829 312.863 25.2789C312.826 24.5448 312.861 23.8422 312.819 23.0032C312.679 20.1717 312.147 13.7151 308.582 13.8924C306.38 14.0019 304.217 16.3172 302.451 18.1572C302.5 16.3325 302.583 14.4711 302.666 12.6097C302.801 10.3952 303.21 8.76286 303.144 7.4345C303.073 6.00127 302.119 5.13759 301.14 5.18626C300.231 5.23145 299.294 6.11908 299.156 8.26362C299.082 9.59893 299.113 11.6299 298.932 14.3372C298.705 18.2383 298.862 21.3844 298.911 25.9025C298.923 26.8481 298.402 27.645 298.447 28.5538C298.512 29.8472 299.562 30.5309 300.611 30.4788C301.729 30.4231 302.808 29.5635 302.719 27.7807C302.686 27.1165 302.555 26.5974 302.531 26.108C302.493 25.339 302.544 24.2501 303.018 23.2103C303.738 21.4924 306.316 17.6496 308.063 17.5627C308.972 17.5175 309.08 19.6848 309.115 20.384C309.214 22.3765 309.032 24.348 309.108 25.8861C309.211 27.9485 310.298 28.6654 311.276 28.6168C312.185 28.5716 312.993 27.9006 313.011 26.8485Z" fill="white"/>
</svg>
