<svg width="156" height="55" viewBox="0 0 156 55" fill="none" xmlns="http://www.w3.org/2000/svg">
<path d="M0.453125 22.4297L144.643 2.09058L155.393 32.9718L4.85437 52.3012L0.453125 22.4297Z" fill="#FF8383"/>
<path d="M31.9767 40.4788C31.323 36.153 24.1601 37.9433 23.7731 35.3824C23.5273 33.7559 26.0007 29.276 27.4365 28.7051C27.9177 28.8447 28.2155 28.9413 28.7346 28.8629C29.7728 28.706 30.0195 27.9961 29.9097 27.2694C29.6692 25.6775 27.7042 25.0895 26.3892 25.2882C25.7662 25.3823 25.0415 25.7396 24.6197 26.2281C22.4124 28.7209 19.5934 32.0849 20.1687 35.8917C20.9636 41.152 28.079 40.2183 28.1888 40.9451C28.2359 41.2565 24.5638 43.1919 24.2721 43.8378C24.0233 44.3001 23.9771 44.6965 24.0241 45.0079C24.1862 46.0808 25.4622 46.5605 26.2928 46.435C27.9193 46.1892 32.2538 42.313 31.9767 40.4788ZM49.1627 33.1739C49.0163 32.2049 47.8369 31.4274 46.9025 31.5686C46.0373 31.6994 45.6783 32.6031 45.2344 33.4136C44.8734 34.0699 41.5132 37.8342 39.4818 38.212C37.9193 38.4127 36.6783 36.7596 36.4744 35.4099L36.443 35.2023C39.1025 34.765 42.6373 32.3901 44.3666 29.5448C44.7916 28.8434 44.8359 28.1996 44.7836 27.8535C44.6058 26.6769 43.0581 26.2736 41.1201 26.5664C36.5866 27.2515 31.9354 31.1402 32.6414 35.8121C33.1383 39.0998 36.2274 42.2081 39.4804 41.7165C42.6297 41.2406 45.1308 38.3495 47.0568 36.5717C47.3662 36.2772 48.0041 35.579 48.2842 35.3243C48.7562 34.9344 49.2882 34.0045 49.1627 33.1739ZM41.1285 29.4324C40.5148 30.0561 39.4499 31.2081 37.0399 31.8909C36.9707 31.9013 37.5981 31.134 38.8295 30.3815C39.8689 29.7643 40.8862 29.469 41.1285 29.4324ZM64.2666 24.6261C64.0574 23.2419 62.5183 22.6603 61.0994 22.8747C60.3034 22.995 59.6531 23.3765 59.0185 23.8617C57.5521 24.9329 55.7085 27.7247 54.5302 29.531C54.3126 28.325 54.2164 27.4546 54.0531 26.8421C53.6323 24.9943 52.415 24.4349 51.3768 24.5917C50.4078 24.7382 49.5728 25.5369 49.714 26.4713C49.7401 26.6443 49.8009 26.8121 49.9015 27.0093C50.5847 28.2512 50.9826 29.7131 51.2179 31.2705C51.8298 35.3195 51.3481 36.348 51.573 37.8361C51.8292 39.5319 52.9531 40.1762 53.9567 40.0245C54.545 39.9356 55.0621 39.6097 55.3696 39.0677C55.9656 38.0927 55.1307 35.8472 55.9199 34.2766C57.7071 30.6438 60.3765 26.5237 61.5531 26.3459C61.8646 26.2988 62.1781 26.4992 62.628 26.4313C63.4931 26.3005 64.3974 25.4913 64.2666 24.6261ZM79.5102 19.8094C79.3271 18.5982 78.4749 17.8774 77.5751 18.0134C76.7791 18.1337 75.9735 18.8926 75.546 20.5146C75.5271 20.6237 70.7123 29.9882 70.132 31.0671L70.0262 30.8353C69.1933 28.8373 69.2343 28.4063 68.5491 26.917C67.8293 25.4329 66.4173 24.0534 65.2061 24.2364C64.3409 24.3671 63.897 25.1776 64.012 25.9389C64.1585 26.9079 64.9246 27.9957 65.2662 28.6166C66.4713 30.7353 67.0732 33.5469 68.2887 35.7349C68.9217 36.8781 69.6923 37.2927 70.4536 37.1776C71.4572 37.0259 72.3888 35.9294 72.813 34.5202C73.1407 33.4088 76.9526 24.9037 78.0364 23.6426C79.3068 22.2118 79.667 20.8476 79.5102 19.8094ZM85.4382 21.4976C85.2604 20.3209 84.3768 19.3926 83.0963 19.5861C80.9853 19.9051 81.6342 23.0282 81.7794 24.4575C82.0437 27.1432 82.1708 29.3894 82.4009 30.9121C82.7146 32.9885 83.0956 34.807 85.1028 34.5037C86.1757 34.3416 86.8252 33.2523 86.6631 32.1795C86.5689 31.5566 86.0648 31.031 85.9445 30.235C85.6621 28.3663 85.6004 22.5704 85.4382 21.4976ZM83.9229 11.0012C83.7398 9.78993 82.7838 9.08487 81.884 9.22084C81.1918 9.32544 80.5435 9.95437 80.3028 11.4066C80.1104 12.71 79.6842 13.8717 79.862 15.0484C80.0607 16.3635 80.9058 16.8021 81.7017 16.6818C82.4631 16.5668 83.21 15.8876 83.2314 14.8578C83.237 13.7242 83.2938 13.3971 83.6906 12.2752C83.8407 11.8631 83.9458 11.3871 83.9229 11.0012ZM95.3714 33.1644C99.7665 32.5002 105.581 27.4092 108.273 24.8432C108.612 24.5088 108.708 24.2111 108.661 23.8996C108.551 23.1728 107.518 22.6565 106.583 22.7977C106.306 22.8395 106.005 22.9558 105.784 23.1309C103.27 24.9975 98.0931 29.3903 95.0823 29.8453C94.2171 29.976 93.4968 29.6601 93.3713 28.8296C93.0836 26.9262 95.2254 23.0628 96.5176 22.4781C96.9035 22.4552 97.196 22.5172 97.5075 22.4701C98.8918 22.2609 99.9232 20.6538 99.7454 19.4771C99.5676 18.3005 98.3491 18.2015 97.3455 18.3531C93.2619 18.9702 89.0866 26.0081 89.6514 29.7457C90.1116 32.7911 92.5336 33.5932 95.3714 33.1644ZM123.994 21.8658C123.847 20.8968 122.668 20.1193 121.734 20.2605C120.868 20.3912 120.509 21.295 120.065 22.1055C119.705 22.7618 116.344 26.5261 114.313 26.9039C112.75 27.1046 111.509 25.4515 111.305 24.1018L111.274 23.8941C113.934 23.4568 117.468 21.082 119.198 18.2367C119.623 17.5353 119.667 16.8915 119.615 16.5454C119.437 15.3688 117.889 14.9655 115.951 15.2583C111.418 15.9434 106.767 19.832 107.473 24.504C107.969 27.7917 111.058 30.9 114.312 30.4084C117.461 29.9325 119.962 27.0413 121.888 25.2636C122.197 24.9691 122.835 24.2709 123.115 24.0162C123.587 23.6263 124.119 22.6964 123.994 21.8658ZM115.96 18.1243C115.346 18.748 114.281 19.9 111.871 20.5828C111.802 20.5932 112.429 19.8259 113.661 19.0734C114.7 18.4562 115.717 18.1609 115.96 18.1243ZM136.497 24.6842C135.843 20.3584 128.68 22.1487 128.293 19.5878C128.047 17.9613 130.521 13.4814 131.957 12.9105C132.438 13.0501 132.736 13.1467 133.255 13.0683C134.293 12.9114 134.54 12.2015 134.43 11.4748C134.189 9.88287 132.224 9.29487 130.909 9.49359C130.286 9.58773 129.562 9.94503 129.14 10.4335C126.933 12.9263 124.114 16.2903 124.689 20.0971C125.484 25.3574 132.599 24.4237 132.709 25.1505C132.756 25.4619 129.084 27.3973 128.792 28.0432C128.544 28.5055 128.497 28.9019 128.544 29.2134C128.706 30.2862 129.982 30.7659 130.813 30.6404C132.44 30.3946 136.774 26.5184 136.497 24.6842Z" fill="white"/>
</svg>
